PathFileType	4	(x/y/z)	S08_P20_T19
DataRate	CameraRate	NumFrames	NumMarkers	Units	OrigDataRate	OrigDataStartFrame	OrigNumFrames
240	240	4	51	mm	240	148	394
Frame#	Time	Sternum			R.Acromium			L.Acromium			Top.Head			R.ASIS			L.ASIS			R.PSIS			L.PSIS			R.Great.Tro			L.Great.Tro			R.Iliac.Crest			L.Iliac.Crest			V.Sacral			R.Thigh.Upper.Post			R.Thigh.Lower.Ant			R.Thigh.Lower.Post			R.Thigh.Upper.Ant			R.Knee.Lat			R.Knee.Med			R.Shank.Upper.Post			R.Shank.Lower.Ant			R.Shank.Lower.Post			R.Shank.Upper.Ant			R.Ankle.Lat			R.Ankle.Med			R.Heel.Upper			R.Heel.Med			R.Heel.Lat			R.Toe.Lat			R.Toe.Med			R.Toe.Tip			L.Thigh.Upper.Post			L.Thigh.Lower.Ant			L.Thigh.Lower.Post			L.Thigh.Upper.Ant			L.Knee.Lat			L.Knee.Med			L.Shank.Upper.Post			L.Shank.Lower.Ant			L.Shank.Lower.Post			L.Shank.Upper.Ant			L.Ankle.Lat			L.Ankle.Med			L.Heel.Upper			L.Heel.Med			L.Heel.Lat			L.Toe.Lat			L.Toe.Med			L.Toe.Tip			Cervical.Spine			Back			
		X1	Y1	Z1	X2	Y2	Z2	X3	Y3	Z3	X4	Y4	Z4	X5	Y5	Z5	X6	Y6	Z6	X7	Y7	Z7	X8	Y8	Z8	X9	Y9	Z9	X10	Y10	Z10	X11	Y11	Z11	X12	Y12	Z12	X13	Y13	Z13	X14	Y14	Z14	X15	Y15	Z15	X16	Y16	Z16	X17	Y17	Z17	X18	Y18	Z18	X19	Y19	Z19	X20	Y20	Z20	X21	Y21	Z21	X22	Y22	Z22	X23	Y23	Z23	X24	Y24	Z24	X25	Y25	Z25	X26	Y26	Z26	X27	Y27	Z27	X28	Y28	Z28	X29	Y29	Z29	X30	Y30	Z30	X31	Y31	Z31	X32	Y32	Z32	X33	Y33	Z33	X34	Y34	Z34	X35	Y35	Z35	X36	Y36	Z36	X37	Y37	Z37	X38	Y38	Z38	X39	Y39	Z39	X40	Y40	Z40	X41	Y41	Z41	X42	Y42	Z42	X43	Y43	Z43	X44	Y44	Z44	X45	Y45	Z45	X46	Y46	Z46	X47	Y47	Z47	X48	Y48	Z48	X49	Y49	Z49	X50	Y50	Z50	X51	Y51	Z51	

148	0.6125	-522.64	1217.7	309.87	-638.09	1451	490.37	-659.1	1483.5	155.9	-640.2	1773	347.36	-544.9	1012.8	420.88	-555.36	998.03	191	-752.04	1024.6	352.31	-750.7	1023	259.99	-593.94	905.43	497.75	-646.6	882.84	130.3	-641.16	1078.2	468.52	-650.09	1077.5	161.01	-767.11	982.7	308.73	-567.08	701.06	476.67	-469.91	626.82	430.06	-538.28	617.24	451.58	-490.63	716.68	455.25	-482.29	525.01	421.26	-526.68	524.16	302.06	-536.92	335.42	432.94	-477.78	275.56	398.69	-536.07	258.69	422.32	-477.99	353.65	411.78	-541.53	95.569	377.53	-516.11	112.92	299.81	-592.73	65.115	331.33	-579.55	38.179	303.81	-584.82	40.336	365.23	NaN	NaN	NaN	-393.12	47.646	286.86	-328.79	66.361	331.67	-644.02	671.15	144.12	-545.05	591.94	147.98	-613.94	584.84	152.97	-571.51	676.52	133.51	-594.59	495.32	158.6	-565.92	482.2	287.05	-750.36	419.14	166.46	-781.55	313.05	179.66	-808.34	374.97	183.17	-718.28	362.2	166.14	-924.96	250.35	194.78	-899.06	234.74	279	-963.99	289.06	244.38	-985.82	267.11	279.99	-990.12	270.1	215.48	-935.86	100.49	193.23	-908.71	97.439	304.94	-872.62	43.846	258.68	-717.84	1510.6	320.23	-760.53	1226.4	322.77
149	0.61667	-517.38	1218.3	309.76	-632.37	1451.6	490.48	-653.81	1484.3	156.04	-634.74	1773.7	347.66	-539.52	1013.5	421.04	-550.21	998.54	191.17	-746.74	1025.2	352.66	-745.57	1023.4	260.36	-588.9	906.03	498.03	-640.92	883.1	130.69	-635.85	1079	468.71	-645.01	1077.8	161.18	-761.87	983.2	309.21	-563.62	701.42	476.77	-466.92	626.44	430.34	-535.42	617.41	451.72	-487	716.42	455.54	-479.96	524.79	421.4	-524.32	524.3	302.14	-535.74	335.52	432.79	-476.81	275.33	398.69	-535.24	258.79	422.15	-476.65	353.45	411.85	-541.38	95.692	377.39	-515.95	112.93	299.71	-592.69	65.176	331.29	-579.53	38.211	303.83	-584.79	40.399	365.21	NaN	NaN	NaN	-393.03	47.507	286.78	-328.64	66.019	331.62	-634.84	671.45	144.1	-534.88	593.5	147.81	-603.69	585.51	152.89	-562.36	677.74	133.37	-582.74	496.64	158.2	-554.3	483.51	286.95	-738.19	421.08	166.1	-770.07	315.19	179.21	-796.38	377.14	182.73	-706.35	364.01	165.82	-913.7	253.29	194.36	-887.73	237.32	278.49	-952.45	291.98	244.09	-974.36	269.92	279.6	-978.71	273.27	215.12	-925.03	103.38	191.96	-897.81	99.58	303.58	-862	45.433	256.92	-712.35	1511.4	320.51	-755.21	1227.2	323.04
150	0.62083	-512.13	1218.9	309.65	-626.68	1452.2	490.58	-648.54	1485	156.16	-629.26	1774.3	347.95	-534.15	1014.2	421.18	-545.09	999.13	191.33	-741.44	1025.9	353.04	-740.46	1023.9	260.76	-583.9	906.62	498.29	-635.3	883.47	131.07	-630.52	1079.8	468.91	-639.97	1078.2	161.38	-756.65	983.76	309.71	-560.27	701.79	476.82	-464.05	626.04	430.62	-532.7	617.58	451.84	-483.48	716.14	455.83	-477.78	524.57	421.54	-522.07	524.43	302.19	-534.66	335.63	432.62	-475.92	275.13	398.69	-534.51	258.9	421.97	-475.41	353.27	411.91	-541.24	95.814	377.23	-515.8	112.93	299.59	-592.66	65.239	331.25	-579.52	38.241	303.84	-584.77	40.465	365.19	NaN	NaN	NaN	-392.93	47.379	286.7	-328.5	65.697	331.57	-625.69	671.9	144.09	-524.77	595.21	147.67	-593.48	586.34	152.88	-553.26	679.11	133.25	-570.99	498.14	157.88	-542.84	485.01	286.9	-726.07	423.03	165.79	-758.46	317.28	178.81	-784.42	379.24	182.34	-694.41	365.86	165.54	-902.29	255.98	194.01	-876.22	239.67	278.02	-940.89	294.47	243.89	-962.8	272.23	279.29	-967.21	275.96	214.83	-913.6	106.07	190.67	-886.3	101.54	302.2	-850.62	47.105	255.11	-706.87	1512.1	320.77	-749.89	1227.9	323.32
151	0.625	-506.89	1219.6	309.52	-621.01	1452.9	490.67	-643.28	1485.8	156.26	-623.77	1775	348.24	-528.79	1014.9	421.3	-540	999.8	191.47	-736.15	1026.5	353.45	-735.37	1024.5	261.19	-578.94	907.18	498.52	-629.73	883.95	131.43	-625.17	1080.6	469.12	-634.97	1078.7	161.59	-751.45	984.37	310.23	-557.03	702.16	476.83	-461.31	625.63	430.88	-530.1	617.76	451.93	-480.07	715.85	456.1	-475.73	524.36	421.66	-519.9	524.56	302.22	-533.68	335.74	432.43	-475.12	274.95	398.7	-533.86	259.02	421.76	-474.28	353.1	411.97	-541.11	95.937	377.09	-515.65	112.93	299.48	-592.63	65.304	331.21	-579.5	38.27	303.84	-584.74	40.534	365.17	NaN	NaN	NaN	-392.84	47.262	286.63	-328.36	65.389	331.53	-616.57	672.5	144.12	-514.72	597.07	147.58	-583.32	587.33	152.91	-544.21	680.6	133.15	-559.35	499.8	157.63	-531.52	486.67	286.88	-714.02	424.95	165.54	-746.72	319.29	178.44	-772.46	381.23	182	-682.45	367.74	165.31	-890.71	258.42	193.72	-864.54	241.79	277.58	-929.33	296.55	243.77	-951.16	274.04	279.03	-955.64	278.17	214.61	-901.6	108.55	189.35	-874.23	103.3	300.8	-838.51	48.827	253.26	-701.4	1512.9	321.02	-744.59	1228.8	323.6
